<mxfile host="65bd71144e">
    <diagram id="AsMvvROsmvGRK3PFgeRm" name="Page-1">
        <mxGraphModel dx="1044" dy="925" grid="1" gridSize="10" guides="1" tooltips="1" connect="1" arrows="1" fold="1" page="1" pageScale="1" pageWidth="827" pageHeight="1169" math="0" shadow="0">
            <root>
                <mxCell id="0"/>
                <mxCell id="1" parent="0"/>
                <mxCell id="8" value="Config" style="html=1;rounded=1;absoluteArcSize=1;arcSize=10;" vertex="1" parent="1">
                    <mxGeometry x="60" y="303" width="80" height="30" as="geometry"/>
                </mxCell>
                <mxCell id="9" value="" style="endArrow=open;html=1;rounded=0;align=center;verticalAlign=top;endFill=0;labelBackgroundColor=none;endSize=6;" edge="1" source="8" parent="1" target="17">
                    <mxGeometry relative="1" as="geometry">
                        <mxPoint x="90" y="500" as="targetPoint"/>
                    </mxGeometry>
                </mxCell>
                <mxCell id="25" value="config" style="edgeLabel;html=1;align=center;verticalAlign=middle;resizable=0;points=[];" vertex="1" connectable="0" parent="9">
                    <mxGeometry x="-0.2642" y="4" relative="1" as="geometry">
                        <mxPoint as="offset"/>
                    </mxGeometry>
                </mxCell>
                <mxCell id="17" value=":main" style="shape=umlLifeline;perimeter=lifelinePerimeter;whiteSpace=wrap;html=1;container=1;collapsible=0;recursiveResize=0;outlineConnect=0;" vertex="1" parent="1">
                    <mxGeometry x="240" y="220" width="100" height="440" as="geometry"/>
                </mxCell>
                <mxCell id="18" value="" style="html=1;points=[];perimeter=orthogonalPerimeter;" vertex="1" parent="17">
                    <mxGeometry x="45" y="80" width="10" height="280" as="geometry"/>
                </mxCell>
                <mxCell id="19" value="sv_info" style="endArrow=open;startArrow=none;endFill=0;startFill=0;endSize=8;html=1;verticalAlign=bottom;dashed=1;labelBackgroundColor=none;" edge="1" parent="1">
                    <mxGeometry x="-0.0071" y="20" width="160" relative="1" as="geometry">
                        <mxPoint x="537" y="1168.9999999999998" as="sourcePoint"/>
                        <mxPoint x="260" y="1168.9999999999998" as="targetPoint"/>
                        <mxPoint x="1" as="offset"/>
                    </mxGeometry>
                </mxCell>
                <mxCell id="20" value="store(subtitled_video)" style="endArrow=open;html=1;rounded=0;align=center;verticalAlign=top;endFill=0;labelBackgroundColor=none;endSize=6;exitX=0.9;exitY=0.435;exitDx=0;exitDy=0;exitPerimeter=0;" edge="1" parent="1">
                    <mxGeometry relative="1" as="geometry">
                        <mxPoint x="545" y="1140" as="targetPoint"/>
                        <mxPoint x="259.5" y="1140" as="sourcePoint"/>
                    </mxGeometry>
                </mxCell>
                <mxCell id="21" value=":Storage_Mgr" style="shape=umlLifeline;perimeter=lifelinePerimeter;whiteSpace=wrap;html=1;container=1;collapsible=0;recursiveResize=0;outlineConnect=0;" vertex="1" parent="1">
                    <mxGeometry x="380" y="220" width="120" height="280" as="geometry"/>
                </mxCell>
                <mxCell id="22" value="" style="html=1;points=[];perimeter=orthogonalPerimeter;" vertex="1" parent="21">
                    <mxGeometry x="55" y="140" width="10" height="120" as="geometry"/>
                </mxCell>
                <mxCell id="23" value="" style="html=1;verticalAlign=bottom;labelBackgroundColor=none;endArrow=block;endFill=1;" edge="1" parent="21">
                    <mxGeometry width="160" relative="1" as="geometry">
                        <mxPoint x="-89" y="150" as="sourcePoint"/>
                        <mxPoint x="60" y="150" as="targetPoint"/>
                    </mxGeometry>
                </mxCell>
                <mxCell id="24" value="expire(config:TTL)" style="edgeLabel;html=1;align=center;verticalAlign=middle;resizable=0;points=[];" vertex="1" connectable="0" parent="23">
                    <mxGeometry x="-0.3375" relative="1" as="geometry">
                        <mxPoint x="20" y="10" as="offset"/>
                    </mxGeometry>
                </mxCell>
                <mxCell id="27" value="ok" style="html=1;verticalAlign=bottom;labelBackgroundColor=none;endArrow=open;endFill=0;dashed=1;exitX=0.1;exitY=0.683;exitDx=0;exitDy=0;exitPerimeter=0;" edge="1" parent="21" source="22">
                    <mxGeometry width="160" relative="1" as="geometry">
                        <mxPoint x="-80" y="240" as="sourcePoint"/>
                        <mxPoint x="-90" y="222" as="targetPoint"/>
                        <Array as="points">
                            <mxPoint x="-20" y="222"/>
                        </Array>
                    </mxGeometry>
                </mxCell>
                <mxCell id="10" value="while(true)" style="shape=umlFrame;tabPosition=left;html=1;boundedLbl=1;labelInHeader=1;width=80;height=40;" vertex="1" parent="1">
                    <mxGeometry x="170" y="333" width="300" height="227" as="geometry"/>
                </mxCell>
                <mxCell id="30" value="sleep(config:interval)" style="html=1;verticalAlign=bottom;labelBackgroundColor=none;endArrow=open;endFill=0;dashed=1;" edge="1" parent="1" source="17" target="17">
                    <mxGeometry x="0.4116" y="30" width="160" relative="1" as="geometry">
                        <mxPoint x="350" y="480" as="sourcePoint"/>
                        <mxPoint x="680" y="672" as="targetPoint"/>
                        <Array as="points">
                            <mxPoint x="360" y="480"/>
                            <mxPoint x="360" y="510"/>
                        </Array>
                        <mxPoint as="offset"/>
                    </mxGeometry>
                </mxCell>
            </root>
        </mxGraphModel>
    </diagram>
</mxfile>